<mxfile host="Electron" agent="Mozilla/5.0 (Windows NT 10.0; Win64; x64) AppleWebKit/537.36 (KHTML, like Gecko) draw.io/27.0.9 Chrome/134.0.6998.205 Electron/35.4.0 Safari/537.36" version="27.0.9">
  <diagram name="Page-1" id="2GRsR8NgSvXqAFvUCGnN">
    <mxGraphModel dx="769" dy="608" grid="1" gridSize="10" guides="1" tooltips="1" connect="1" arrows="1" fold="1" page="1" pageScale="1" pageWidth="850" pageHeight="1100" math="0" shadow="0">
      <root>
        <mxCell id="0" />
        <mxCell id="1" parent="0" />
        <mxCell id="fqtqt9-YV5U7vco67008-17" value="" style="shape=table;startSize=0;container=1;collapsible=0;childLayout=tableLayout;" parent="1" vertex="1">
          <mxGeometry x="53" y="60" width="377" height="50.000000000000114" as="geometry" />
        </mxCell>
        <mxCell id="fqtqt9-YV5U7vco67008-18" value="" style="shape=tableRow;horizontal=0;startSize=0;swimlaneHead=0;swimlaneBody=0;strokeColor=inherit;top=0;left=0;bottom=0;right=0;collapsible=0;dropTarget=0;fillColor=none;points=[[0,0.5],[1,0.5]];portConstraint=eastwest;" parent="fqtqt9-YV5U7vco67008-17" vertex="1">
          <mxGeometry width="377" height="50" as="geometry" />
        </mxCell>
        <mxCell id="fqtqt9-YV5U7vco67008-19" value="&lt;font style=&quot;font-size: 13px;&quot;&gt;&lt;b&gt;&lt;u&gt;enrollment_id&amp;nbsp;&amp;nbsp;&lt;/u&gt;&lt;/b&gt;&lt;/font&gt;" style="shape=partialRectangle;html=1;whiteSpace=wrap;connectable=0;strokeColor=inherit;overflow=hidden;fillColor=none;top=0;left=0;bottom=0;right=0;pointerEvents=1;" parent="fqtqt9-YV5U7vco67008-18" vertex="1">
          <mxGeometry width="94" height="50" as="geometry">
            <mxRectangle width="94" height="50" as="alternateBounds" />
          </mxGeometry>
        </mxCell>
        <mxCell id="fqtqt9-YV5U7vco67008-20" value="&lt;font style=&quot;font-size: 11px;&quot;&gt;enrollment_date&lt;/font&gt;" style="shape=partialRectangle;html=1;whiteSpace=wrap;connectable=0;strokeColor=inherit;overflow=hidden;fillColor=none;top=0;left=0;bottom=0;right=0;pointerEvents=1;fontSize=15;fontStyle=1" parent="fqtqt9-YV5U7vco67008-18" vertex="1">
          <mxGeometry x="94" width="95" height="50" as="geometry">
            <mxRectangle width="95" height="50" as="alternateBounds" />
          </mxGeometry>
        </mxCell>
        <mxCell id="fqtqt9-YV5U7vco67008-21" value="trainee_id" style="shape=partialRectangle;html=1;whiteSpace=wrap;connectable=0;strokeColor=inherit;overflow=hidden;fillColor=none;top=0;left=0;bottom=0;right=0;pointerEvents=1;fontSize=15;fontStyle=1" parent="fqtqt9-YV5U7vco67008-18" vertex="1">
          <mxGeometry x="189" width="94" height="50" as="geometry">
            <mxRectangle width="94" height="50" as="alternateBounds" />
          </mxGeometry>
        </mxCell>
        <mxCell id="fqtqt9-YV5U7vco67008-22" value="course_id" style="shape=partialRectangle;html=1;whiteSpace=wrap;connectable=0;strokeColor=inherit;overflow=hidden;fillColor=none;top=0;left=0;bottom=0;right=0;pointerEvents=1;fontSize=15;fontStyle=1" parent="fqtqt9-YV5U7vco67008-18" vertex="1">
          <mxGeometry x="283" width="94" height="50" as="geometry">
            <mxRectangle width="94" height="50" as="alternateBounds" />
          </mxGeometry>
        </mxCell>
        <mxCell id="fqtqt9-YV5U7vco67008-28" value="" style="shape=table;startSize=0;container=1;collapsible=0;childLayout=tableLayout;" parent="1" vertex="1">
          <mxGeometry x="281" y="200" width="471" height="50.000000000000114" as="geometry" />
        </mxCell>
        <mxCell id="fqtqt9-YV5U7vco67008-29" value="" style="shape=tableRow;horizontal=0;startSize=0;swimlaneHead=0;swimlaneBody=0;strokeColor=inherit;top=0;left=0;bottom=0;right=0;collapsible=0;dropTarget=0;fillColor=none;points=[[0,0.5],[1,0.5]];portConstraint=eastwest;" parent="fqtqt9-YV5U7vco67008-28" vertex="1">
          <mxGeometry width="471" height="50" as="geometry" />
        </mxCell>
        <mxCell id="fqtqt9-YV5U7vco67008-30" value="&lt;b&gt;&lt;font style=&quot;font-size: 14px;&quot;&gt;&lt;u&gt;trainee_id&lt;/u&gt;&lt;/font&gt;&lt;/b&gt;" style="shape=partialRectangle;html=1;whiteSpace=wrap;connectable=0;strokeColor=inherit;overflow=hidden;fillColor=none;top=0;left=0;bottom=0;right=0;pointerEvents=1;" parent="fqtqt9-YV5U7vco67008-29" vertex="1">
          <mxGeometry width="94" height="50" as="geometry">
            <mxRectangle width="94" height="50" as="alternateBounds" />
          </mxGeometry>
        </mxCell>
        <mxCell id="fqtqt9-YV5U7vco67008-31" value="name" style="shape=partialRectangle;html=1;whiteSpace=wrap;connectable=0;strokeColor=inherit;overflow=hidden;fillColor=none;top=0;left=0;bottom=0;right=0;pointerEvents=1;fontSize=15;fontStyle=1" parent="fqtqt9-YV5U7vco67008-29" vertex="1">
          <mxGeometry x="94" width="95" height="50" as="geometry">
            <mxRectangle width="95" height="50" as="alternateBounds" />
          </mxGeometry>
        </mxCell>
        <mxCell id="fqtqt9-YV5U7vco67008-32" value="gender" style="shape=partialRectangle;html=1;whiteSpace=wrap;connectable=0;strokeColor=inherit;overflow=hidden;fillColor=none;top=0;left=0;bottom=0;right=0;pointerEvents=1;fontSize=15;fontStyle=1" parent="fqtqt9-YV5U7vco67008-29" vertex="1">
          <mxGeometry x="189" width="94" height="50" as="geometry">
            <mxRectangle width="94" height="50" as="alternateBounds" />
          </mxGeometry>
        </mxCell>
        <mxCell id="fqtqt9-YV5U7vco67008-33" value="email" style="shape=partialRectangle;html=1;whiteSpace=wrap;connectable=0;strokeColor=inherit;overflow=hidden;fillColor=none;top=0;left=0;bottom=0;right=0;pointerEvents=1;fontSize=15;fontStyle=1" parent="fqtqt9-YV5U7vco67008-29" vertex="1">
          <mxGeometry x="283" width="94" height="50" as="geometry">
            <mxRectangle width="94" height="50" as="alternateBounds" />
          </mxGeometry>
        </mxCell>
        <mxCell id="x4WxcXgAFv0fN1opkvbP-3" value="background" style="shape=partialRectangle;html=1;whiteSpace=wrap;connectable=0;strokeColor=inherit;overflow=hidden;fillColor=none;top=0;left=0;bottom=0;right=0;pointerEvents=1;fontSize=15;fontStyle=1" vertex="1" parent="fqtqt9-YV5U7vco67008-29">
          <mxGeometry x="377" width="94" height="50" as="geometry">
            <mxRectangle width="94" height="50" as="alternateBounds" />
          </mxGeometry>
        </mxCell>
        <mxCell id="fqtqt9-YV5U7vco67008-45" value="" style="endArrow=none;dashed=1;html=1;rounded=0;strokeWidth=2;" parent="1" edge="1">
          <mxGeometry width="50" height="50" relative="1" as="geometry">
            <mxPoint x="263.5" y="96" as="sourcePoint" />
            <mxPoint x="309.5" y="96" as="targetPoint" />
          </mxGeometry>
        </mxCell>
        <mxCell id="fqtqt9-YV5U7vco67008-49" value="" style="shape=table;startSize=0;container=1;collapsible=0;childLayout=tableLayout;" parent="1" vertex="1">
          <mxGeometry x="114" y="311" width="474" height="50.000000000000114" as="geometry" />
        </mxCell>
        <mxCell id="fqtqt9-YV5U7vco67008-50" value="" style="shape=tableRow;horizontal=0;startSize=0;swimlaneHead=0;swimlaneBody=0;strokeColor=inherit;top=0;left=0;bottom=0;right=0;collapsible=0;dropTarget=0;fillColor=none;points=[[0,0.5],[1,0.5]];portConstraint=eastwest;" parent="fqtqt9-YV5U7vco67008-49" vertex="1">
          <mxGeometry width="474" height="50" as="geometry" />
        </mxCell>
        <mxCell id="fqtqt9-YV5U7vco67008-55" value="&lt;font style=&quot;font-size: 17px;&quot;&gt;&lt;b&gt;&lt;u&gt;course_id&lt;/u&gt;&lt;/b&gt;&lt;/font&gt;" style="shape=partialRectangle;html=1;whiteSpace=wrap;connectable=0;strokeColor=inherit;overflow=hidden;fillColor=none;top=0;left=0;bottom=0;right=0;pointerEvents=1;fontStyle=0" parent="fqtqt9-YV5U7vco67008-50" vertex="1">
          <mxGeometry width="94" height="50" as="geometry">
            <mxRectangle width="94" height="50" as="alternateBounds" />
          </mxGeometry>
        </mxCell>
        <mxCell id="fqtqt9-YV5U7vco67008-52" value="&lt;font style=&quot;font-size: 16px;&quot;&gt;title&lt;/font&gt;" style="shape=partialRectangle;html=1;whiteSpace=wrap;connectable=0;strokeColor=inherit;overflow=hidden;fillColor=none;top=0;left=0;bottom=0;right=0;pointerEvents=1;fontSize=15;fontStyle=1" parent="fqtqt9-YV5U7vco67008-50" vertex="1">
          <mxGeometry x="94" width="95" height="50" as="geometry">
            <mxRectangle width="95" height="50" as="alternateBounds" />
          </mxGeometry>
        </mxCell>
        <mxCell id="x4WxcXgAFv0fN1opkvbP-4" value="category" style="shape=partialRectangle;html=1;whiteSpace=wrap;connectable=0;strokeColor=inherit;overflow=hidden;fillColor=none;top=0;left=0;bottom=0;right=0;pointerEvents=1;fontSize=15;fontStyle=1" vertex="1" parent="fqtqt9-YV5U7vco67008-50">
          <mxGeometry x="189" width="95" height="50" as="geometry">
            <mxRectangle width="95" height="50" as="alternateBounds" />
          </mxGeometry>
        </mxCell>
        <mxCell id="x4WxcXgAFv0fN1opkvbP-5" value="&lt;font style=&quot;font-size: 12px;&quot;&gt;duration_hours&lt;/font&gt;" style="shape=partialRectangle;html=1;whiteSpace=wrap;connectable=0;strokeColor=inherit;overflow=hidden;fillColor=none;top=0;left=0;bottom=0;right=0;pointerEvents=1;fontSize=15;fontStyle=1" vertex="1" parent="fqtqt9-YV5U7vco67008-50">
          <mxGeometry x="284" width="95" height="50" as="geometry">
            <mxRectangle width="95" height="50" as="alternateBounds" />
          </mxGeometry>
        </mxCell>
        <mxCell id="x4WxcXgAFv0fN1opkvbP-6" value="level" style="shape=partialRectangle;html=1;whiteSpace=wrap;connectable=0;strokeColor=inherit;overflow=hidden;fillColor=none;top=0;left=0;bottom=0;right=0;pointerEvents=1;fontSize=15;fontStyle=1" vertex="1" parent="fqtqt9-YV5U7vco67008-50">
          <mxGeometry x="379" width="95" height="50" as="geometry">
            <mxRectangle width="95" height="50" as="alternateBounds" />
          </mxGeometry>
        </mxCell>
        <mxCell id="fqtqt9-YV5U7vco67008-57" value="" style="shape=table;startSize=0;container=1;collapsible=0;childLayout=tableLayout;" parent="1" vertex="1">
          <mxGeometry x="191" y="420" width="566" height="50.000000000000114" as="geometry" />
        </mxCell>
        <mxCell id="fqtqt9-YV5U7vco67008-58" value="" style="shape=tableRow;horizontal=0;startSize=0;swimlaneHead=0;swimlaneBody=0;strokeColor=inherit;top=0;left=0;bottom=0;right=0;collapsible=0;dropTarget=0;fillColor=none;points=[[0,0.5],[1,0.5]];portConstraint=eastwest;" parent="fqtqt9-YV5U7vco67008-57" vertex="1">
          <mxGeometry width="566" height="50" as="geometry" />
        </mxCell>
        <mxCell id="fqtqt9-YV5U7vco67008-59" value="&lt;b&gt;&lt;font style=&quot;font-size: 15px;&quot;&gt;&lt;u&gt;schedule_id&lt;/u&gt;&lt;/font&gt;&lt;/b&gt;" style="shape=partialRectangle;html=1;whiteSpace=wrap;connectable=0;strokeColor=inherit;overflow=hidden;fillColor=none;top=0;left=0;bottom=0;right=0;pointerEvents=1;" parent="fqtqt9-YV5U7vco67008-58" vertex="1">
          <mxGeometry width="94" height="50" as="geometry">
            <mxRectangle width="94" height="50" as="alternateBounds" />
          </mxGeometry>
        </mxCell>
        <mxCell id="fqtqt9-YV5U7vco67008-63" value="start_date" style="shape=partialRectangle;html=1;whiteSpace=wrap;connectable=0;strokeColor=inherit;overflow=hidden;fillColor=none;top=0;left=0;bottom=0;right=0;pointerEvents=1;fontSize=15;fontStyle=1" parent="fqtqt9-YV5U7vco67008-58" vertex="1">
          <mxGeometry x="94" width="95" height="50" as="geometry">
            <mxRectangle width="95" height="50" as="alternateBounds" />
          </mxGeometry>
        </mxCell>
        <mxCell id="fqtqt9-YV5U7vco67008-60" value="end_date" style="shape=partialRectangle;html=1;whiteSpace=wrap;connectable=0;strokeColor=inherit;overflow=hidden;fillColor=none;top=0;left=0;bottom=0;right=0;pointerEvents=1;fontSize=15;fontStyle=1" parent="fqtqt9-YV5U7vco67008-58" vertex="1">
          <mxGeometry x="189" width="95" height="50" as="geometry">
            <mxRectangle width="95" height="50" as="alternateBounds" />
          </mxGeometry>
        </mxCell>
        <mxCell id="fqtqt9-YV5U7vco67008-61" value="&lt;font style=&quot;font-size: 17px;&quot;&gt;time_slot&lt;/font&gt;" style="shape=partialRectangle;html=1;whiteSpace=wrap;connectable=0;strokeColor=inherit;overflow=hidden;fillColor=none;top=0;left=0;bottom=0;right=0;pointerEvents=1;fontSize=15;fontStyle=1" parent="fqtqt9-YV5U7vco67008-58" vertex="1">
          <mxGeometry x="284" width="94" height="50" as="geometry">
            <mxRectangle width="94" height="50" as="alternateBounds" />
          </mxGeometry>
        </mxCell>
        <mxCell id="fqtqt9-YV5U7vco67008-62" value="course_id" style="shape=partialRectangle;html=1;whiteSpace=wrap;connectable=0;strokeColor=inherit;overflow=hidden;fillColor=none;top=0;left=0;bottom=0;right=0;pointerEvents=1;fontSize=15;fontStyle=1" parent="fqtqt9-YV5U7vco67008-58" vertex="1">
          <mxGeometry x="378" width="94" height="50" as="geometry">
            <mxRectangle width="94" height="50" as="alternateBounds" />
          </mxGeometry>
        </mxCell>
        <mxCell id="x4WxcXgAFv0fN1opkvbP-8" value="trainer_id" style="shape=partialRectangle;html=1;whiteSpace=wrap;connectable=0;strokeColor=inherit;overflow=hidden;fillColor=none;top=0;left=0;bottom=0;right=0;pointerEvents=1;fontSize=15;fontStyle=1" vertex="1" parent="fqtqt9-YV5U7vco67008-58">
          <mxGeometry x="472" width="94" height="50" as="geometry">
            <mxRectangle width="94" height="50" as="alternateBounds" />
          </mxGeometry>
        </mxCell>
        <mxCell id="fqtqt9-YV5U7vco67008-64" value="" style="endArrow=none;dashed=1;html=1;rounded=0;strokeWidth=2;" parent="1" edge="1">
          <mxGeometry width="50" height="50" relative="1" as="geometry">
            <mxPoint x="597" y="457" as="sourcePoint" />
            <mxPoint x="643" y="457" as="targetPoint" />
          </mxGeometry>
        </mxCell>
        <mxCell id="fqtqt9-YV5U7vco67008-66" value="" style="shape=table;startSize=0;container=1;collapsible=0;childLayout=tableLayout;" parent="1" vertex="1">
          <mxGeometry x="149" y="530" width="471" height="50.000000000000114" as="geometry" />
        </mxCell>
        <mxCell id="fqtqt9-YV5U7vco67008-67" value="" style="shape=tableRow;horizontal=0;startSize=0;swimlaneHead=0;swimlaneBody=0;strokeColor=inherit;top=0;left=0;bottom=0;right=0;collapsible=0;dropTarget=0;fillColor=none;points=[[0,0.5],[1,0.5]];portConstraint=eastwest;" parent="fqtqt9-YV5U7vco67008-66" vertex="1">
          <mxGeometry width="471" height="50" as="geometry" />
        </mxCell>
        <mxCell id="fqtqt9-YV5U7vco67008-68" value="&lt;b&gt;&lt;font style=&quot;font-size: 14px;&quot;&gt;&lt;u&gt;trainer_id&lt;/u&gt;&lt;/font&gt;&lt;/b&gt;" style="shape=partialRectangle;html=1;whiteSpace=wrap;connectable=0;strokeColor=inherit;overflow=hidden;fillColor=none;top=0;left=0;bottom=0;right=0;pointerEvents=1;" parent="fqtqt9-YV5U7vco67008-67" vertex="1">
          <mxGeometry width="94" height="50" as="geometry">
            <mxRectangle width="94" height="50" as="alternateBounds" />
          </mxGeometry>
        </mxCell>
        <mxCell id="fqtqt9-YV5U7vco67008-69" value="name" style="shape=partialRectangle;html=1;whiteSpace=wrap;connectable=0;strokeColor=inherit;overflow=hidden;fillColor=none;top=0;left=0;bottom=0;right=0;pointerEvents=1;fontSize=15;fontStyle=1" parent="fqtqt9-YV5U7vco67008-67" vertex="1">
          <mxGeometry x="94" width="95" height="50" as="geometry">
            <mxRectangle width="95" height="50" as="alternateBounds" />
          </mxGeometry>
        </mxCell>
        <mxCell id="fqtqt9-YV5U7vco67008-70" value="specialty" style="shape=partialRectangle;html=1;whiteSpace=wrap;connectable=0;strokeColor=inherit;overflow=hidden;fillColor=none;top=0;left=0;bottom=0;right=0;pointerEvents=1;fontSize=15;fontStyle=1" parent="fqtqt9-YV5U7vco67008-67" vertex="1">
          <mxGeometry x="189" width="94" height="50" as="geometry">
            <mxRectangle width="94" height="50" as="alternateBounds" />
          </mxGeometry>
        </mxCell>
        <mxCell id="x4WxcXgAFv0fN1opkvbP-10" value="phone" style="shape=partialRectangle;html=1;whiteSpace=wrap;connectable=0;strokeColor=inherit;overflow=hidden;fillColor=none;top=0;left=0;bottom=0;right=0;pointerEvents=1;fontSize=15;fontStyle=1" vertex="1" parent="fqtqt9-YV5U7vco67008-67">
          <mxGeometry x="283" width="94" height="50" as="geometry">
            <mxRectangle width="94" height="50" as="alternateBounds" />
          </mxGeometry>
        </mxCell>
        <mxCell id="x4WxcXgAFv0fN1opkvbP-11" value="email" style="shape=partialRectangle;html=1;whiteSpace=wrap;connectable=0;strokeColor=inherit;overflow=hidden;fillColor=none;top=0;left=0;bottom=0;right=0;pointerEvents=1;fontSize=15;fontStyle=1" vertex="1" parent="fqtqt9-YV5U7vco67008-67">
          <mxGeometry x="377" width="94" height="50" as="geometry">
            <mxRectangle width="94" height="50" as="alternateBounds" />
          </mxGeometry>
        </mxCell>
        <mxCell id="fqtqt9-YV5U7vco67008-86" value="&lt;b&gt;&lt;font style=&quot;font-size: 14px;&quot;&gt;Enrollment&lt;/font&gt;&lt;/b&gt;" style="text;strokeColor=none;align=center;fillColor=none;html=1;verticalAlign=middle;whiteSpace=wrap;rounded=0;" parent="1" vertex="1">
          <mxGeometry x="26" y="29" width="60" height="30" as="geometry" />
        </mxCell>
        <mxCell id="fqtqt9-YV5U7vco67008-87" value="&lt;b&gt;&lt;font style=&quot;font-size: 14px;&quot;&gt;Trainee&lt;/font&gt;&lt;/b&gt;" style="text;strokeColor=none;align=center;fillColor=none;html=1;verticalAlign=middle;whiteSpace=wrap;rounded=0;" parent="1" vertex="1">
          <mxGeometry x="250" y="170" width="60" height="30" as="geometry" />
        </mxCell>
        <mxCell id="fqtqt9-YV5U7vco67008-88" value="&lt;b&gt;&lt;font style=&quot;font-size: 14px;&quot;&gt;Course&lt;/font&gt;&lt;/b&gt;" style="text;strokeColor=none;align=center;fillColor=none;html=1;verticalAlign=middle;whiteSpace=wrap;rounded=0;" parent="1" vertex="1">
          <mxGeometry x="60" y="270" width="60" height="30" as="geometry" />
        </mxCell>
        <mxCell id="fqtqt9-YV5U7vco67008-89" value="&lt;b&gt;&lt;font style=&quot;font-size: 14px;&quot;&gt;Schedule&lt;/font&gt;&lt;/b&gt;" style="text;strokeColor=none;align=center;fillColor=none;html=1;verticalAlign=middle;whiteSpace=wrap;rounded=0;" parent="1" vertex="1">
          <mxGeometry x="152" y="390" width="60" height="30" as="geometry" />
        </mxCell>
        <mxCell id="fqtqt9-YV5U7vco67008-90" value="&lt;b&gt;&lt;font style=&quot;font-size: 14px;&quot;&gt;Trainer&lt;/font&gt;&lt;/b&gt;" style="text;strokeColor=none;align=center;fillColor=none;html=1;verticalAlign=middle;whiteSpace=wrap;rounded=0;" parent="1" vertex="1">
          <mxGeometry x="92" y="500" width="60" height="30" as="geometry" />
        </mxCell>
        <mxCell id="x4WxcXgAFv0fN1opkvbP-1" value="" style="endArrow=none;dashed=1;html=1;rounded=0;strokeWidth=2;" edge="1" parent="1">
          <mxGeometry width="50" height="50" relative="1" as="geometry">
            <mxPoint x="362" y="97" as="sourcePoint" />
            <mxPoint x="408" y="97" as="targetPoint" />
          </mxGeometry>
        </mxCell>
        <mxCell id="x4WxcXgAFv0fN1opkvbP-9" value="" style="endArrow=none;dashed=1;html=1;rounded=0;strokeWidth=2;" edge="1" parent="1">
          <mxGeometry width="50" height="50" relative="1" as="geometry">
            <mxPoint x="690" y="457" as="sourcePoint" />
            <mxPoint x="736" y="457" as="targetPoint" />
          </mxGeometry>
        </mxCell>
        <mxCell id="x4WxcXgAFv0fN1opkvbP-12" value="" style="endArrow=classic;html=1;rounded=0;exitX=0.623;exitY=0.966;exitDx=0;exitDy=0;exitPerimeter=0;entryX=0.081;entryY=0.003;entryDx=0;entryDy=0;entryPerimeter=0;" edge="1" parent="1" source="fqtqt9-YV5U7vco67008-18" target="fqtqt9-YV5U7vco67008-29">
          <mxGeometry width="50" height="50" relative="1" as="geometry">
            <mxPoint x="390" y="360" as="sourcePoint" />
            <mxPoint x="440" y="310" as="targetPoint" />
          </mxGeometry>
        </mxCell>
        <mxCell id="x4WxcXgAFv0fN1opkvbP-13" value="" style="endArrow=classic;html=1;rounded=0;exitX=0.849;exitY=0.996;exitDx=0;exitDy=0;exitPerimeter=0;entryX=0.069;entryY=-0.01;entryDx=0;entryDy=0;entryPerimeter=0;" edge="1" parent="1" source="fqtqt9-YV5U7vco67008-18" target="fqtqt9-YV5U7vco67008-50">
          <mxGeometry width="50" height="50" relative="1" as="geometry">
            <mxPoint x="390" y="360" as="sourcePoint" />
            <mxPoint x="440" y="310" as="targetPoint" />
            <Array as="points">
              <mxPoint x="140" y="170" />
            </Array>
          </mxGeometry>
        </mxCell>
        <mxCell id="x4WxcXgAFv0fN1opkvbP-14" value="" style="endArrow=classic;html=1;rounded=0;exitX=0.723;exitY=0;exitDx=0;exitDy=0;exitPerimeter=0;entryX=0.13;entryY=1.027;entryDx=0;entryDy=0;entryPerimeter=0;" edge="1" parent="1" source="fqtqt9-YV5U7vco67008-58" target="fqtqt9-YV5U7vco67008-50">
          <mxGeometry width="50" height="50" relative="1" as="geometry">
            <mxPoint x="390" y="360" as="sourcePoint" />
            <mxPoint x="440" y="310" as="targetPoint" />
          </mxGeometry>
        </mxCell>
        <mxCell id="x4WxcXgAFv0fN1opkvbP-15" value="" style="endArrow=classic;html=1;rounded=0;exitX=0.927;exitY=1.04;exitDx=0;exitDy=0;exitPerimeter=0;entryX=0.124;entryY=-0.049;entryDx=0;entryDy=0;entryPerimeter=0;" edge="1" parent="1" source="fqtqt9-YV5U7vco67008-58" target="fqtqt9-YV5U7vco67008-67">
          <mxGeometry width="50" height="50" relative="1" as="geometry">
            <mxPoint x="390" y="360" as="sourcePoint" />
            <mxPoint x="440" y="310" as="targetPoint" />
          </mxGeometry>
        </mxCell>
      </root>
    </mxGraphModel>
  </diagram>
</mxfile>
